<svg width="873" height="273" viewBox="0 0 873 273" fill="none" xmlns="http://www.w3.org/2000/svg">
<path d="M339.21 161.67C332.62 161.67 326.69 160.66 321.42 158.64C316.15 156.62 311.7 153.7 308.08 149.89C304.46 146.08 301.68 141.39 299.75 135.84C297.82 130.29 296.85 123.98 296.85 116.92C296.85 107.51 298.64 99.51 302.22 92.92C305.8 86.33 310.81 81.32 317.26 77.88C323.71 74.44 331.22 72.73 339.78 72.73C347.41 72.73 353.97 74 359.48 76.54C364.99 79.08 369.36 82.87 372.61 87.91C375.86 92.95 377.86 99.14 378.61 106.48L354.32 111C353.38 105.64 351.8 101.59 349.59 98.86C347.38 96.13 343.82 94.76 338.93 94.76C334.88 94.76 331.63 95.8 329.19 97.87C326.74 99.94 324.95 102.62 323.83 105.92C322.7 109.22 322.14 112.89 322.14 116.93C322.14 121.83 322.71 125.97 323.83 129.36C324.96 132.75 326.75 135.39 329.19 137.27C331.64 139.15 334.89 140.09 338.93 140.09C342.32 140.09 345 139.48 346.98 138.25C348.96 137.03 350.56 135.17 351.78 132.67C353 130.18 353.99 127.14 354.75 123.56L378.76 127.51C378.01 134.76 375.94 140.95 372.55 146.08C369.16 151.21 364.64 155.1 358.99 157.73C353.34 160.36 346.75 161.68 339.22 161.68" fill="#033300"/>
<path d="M442.219 144.16H397.879V125.95H442.219V144.16ZM428.379 96.8601H413.269L423.719 78.9301C422.779 82.8801 421.809 86.8901 420.829 90.9301C419.839 94.9801 418.829 99.0501 417.789 103.14C416.749 107.24 415.619 111.35 414.399 115.49L402.109 159.54H375.989L403.519 74.8201H438.539L466.219 159.54H438.969L426.969 115.49C425.839 111.35 424.759 107.23 423.719 103.14C422.679 99.0401 421.689 95.0001 420.749 91.0001C419.809 87.0001 418.909 83.0201 418.069 79.0701L428.379 96.8601Z" fill="#033300"/>
<path d="M494.331 136.96H531.331V159.55H494.331V136.96ZM497.151 159.55H471.73V74.8301H497.151V159.55Z" fill="#033300"/>
<path d="M588.36 141.48L592.46 133.71H594.58L594.44 141.48H588.37H588.36ZM575.65 129.2V111.55H615.75V159.56H592.73V138.24L591.88 123.27L602.47 129.2H575.64H575.65ZM565.48 161.11C561.05 161.11 556.94 160.21 553.13 158.43C549.32 156.64 545.98 153.96 543.11 150.38C540.24 146.8 537.98 142.36 536.33 137.04C534.68 131.72 533.86 125.48 533.86 118.33C533.86 108.64 535.44 100.4 538.59 93.62C541.74 86.84 546.5 81.67 552.85 78.09C559.2 74.51 566.99 72.73 576.22 72.73C584.22 72.73 590.81 73.77 595.99 75.84C601.17 77.91 605.24 80.99 608.2 85.09C611.17 89.19 613.16 94.34 614.2 100.55L590.34 105.49C589.49 102.2 588.1 99.58 586.17 97.65C584.24 95.72 580.83 94.76 575.93 94.76C571.97 94.76 568.77 95.66 566.33 97.44C563.88 99.23 562.11 101.87 561.03 105.35C559.95 108.83 559.41 113.16 559.41 118.34C559.41 121.92 559.71 125.07 560.33 127.8C560.94 130.53 561.91 132.86 563.22 134.79C564.54 136.72 566.28 138.18 568.44 139.17C570.6 140.16 573.29 140.65 576.49 140.65C579.69 140.65 582.28 140.3 584.26 139.59C586.24 138.88 587.79 137.99 588.92 136.91C590.05 135.83 590.85 134.6 591.32 133.24C591.79 131.88 592.03 130.49 592.03 129.07L593.02 131.47C592.46 135.52 591.56 139.31 590.34 142.84C589.12 146.37 587.42 149.52 585.26 152.3C583.09 155.08 580.39 157.24 577.14 158.8C573.89 160.35 570.01 161.13 565.49 161.13" fill="#033300"/>
<path d="M687.601 144.16H643.261V125.95H687.601V144.16ZM673.771 96.8601H658.661L669.111 78.9301C668.171 82.8801 667.201 86.8901 666.211 90.9301C665.221 94.9801 664.211 99.0501 663.181 103.14C662.141 107.24 661.011 111.35 659.791 115.49L647.501 159.54H621.381L648.911 74.8201H683.931L711.611 159.54H684.361L672.361 115.49C671.231 111.35 670.151 107.23 669.111 103.14C668.071 99.0401 667.081 95.0001 666.141 91.0001C665.201 87.0001 664.301 83.0201 663.461 79.0701L673.771 96.8601Z" fill="#033300"/>
<path d="M773.39 124.54L796.26 158.01V159.56H766.75L748.82 127.08L773.39 124.54ZM731.88 96.1501L743.04 79.6301V159.55H717.62V74.8301H756.59C764.02 74.8301 770.31 75.9101 775.44 78.0801C780.57 80.2501 784.48 83.5201 787.16 87.8901C789.84 92.2701 791.18 97.8501 791.18 104.62C791.18 111.39 789.77 116.62 786.94 120.86C784.12 125.1 780.09 128.23 774.87 130.25C769.65 132.28 763.6 133.29 756.73 133.29H732.3L732.44 114.65H755.32C759.46 114.65 762.29 113.9 763.79 112.39C765.29 110.88 766.05 108.58 766.05 105.47C766.05 103.21 765.65 101.4 764.85 100.03C764.05 98.6701 762.83 97.6801 761.18 97.0601C759.53 96.4501 757.44 96.1401 754.9 96.1401H731.88V96.1501Z" fill="#033300"/>
<path d="M845.17 74.8301L831.45 111.97H829.2L816.09 74.8301H787.99V76.3901L817.64 133.61V159.56H843.06V133.6L872.43 76.3901V74.8301H845.17Z" fill="#033300"/>
<path d="M339.21 272.02C332.62 272.02 326.69 271.01 321.42 268.99C316.15 266.97 311.7 264.05 308.08 260.23C304.46 256.42 301.68 251.74 299.75 246.18C297.82 240.63 296.85 234.32 296.85 227.26C296.85 217.85 298.64 209.85 302.22 203.26C305.8 196.67 310.81 191.66 317.26 188.22C323.71 184.78 331.22 183.07 339.78 183.07C347.41 183.07 353.97 184.34 359.48 186.88C364.99 189.42 369.36 193.21 372.61 198.25C375.86 203.29 377.86 209.47 378.61 216.82L354.32 221.34C353.38 215.98 351.8 211.93 349.59 209.2C347.38 206.47 343.82 205.1 338.93 205.1C334.88 205.1 331.63 206.14 329.19 208.21C326.74 210.28 324.95 212.96 323.83 216.26C322.7 219.55 322.14 223.23 322.14 227.27C322.14 232.17 322.71 236.31 323.83 239.7C324.96 243.09 326.75 245.73 329.19 247.61C331.64 249.49 334.89 250.43 338.93 250.43C342.32 250.43 345 249.82 346.98 248.59C348.96 247.37 350.56 245.51 351.78 243.01C353 240.52 353.99 237.48 354.75 233.9L378.76 237.85C378.01 245.1 375.94 251.29 372.55 256.42C369.16 261.55 364.64 265.44 358.99 268.07C353.34 270.7 346.75 272.02 339.22 272.02" fill="#033300"/>
<path d="M441.44 234.89L464.31 268.35V269.9H434.8L416.87 237.42L441.44 234.88V234.89ZM399.92 206.5L411.08 189.98V269.9H385.66V185.18H424.63C432.06 185.18 438.35 186.26 443.48 188.43C448.61 190.6 452.52 193.87 455.2 198.24C457.88 202.62 459.22 208.2 459.22 214.97C459.22 221.74 457.81 226.97 454.98 231.21C452.16 235.45 448.13 238.58 442.91 240.6C437.69 242.63 431.64 243.64 424.77 243.64H400.34L400.48 225H423.36C427.5 225 430.33 224.25 431.83 222.74C433.33 221.24 434.09 218.93 434.09 215.82C434.09 213.56 433.69 211.75 432.89 210.38C432.09 209.02 430.87 208.03 429.22 207.41C427.57 206.8 425.48 206.49 422.94 206.49H399.92V206.5Z" fill="#033300"/>
<path d="M508.799 250.42C513.319 250.42 516.919 249.5 519.599 247.67C522.279 245.83 524.21 243.18 525.39 239.69C526.57 236.21 527.15 232.02 527.15 227.12C527.15 222.69 526.54 218.84 525.31 215.54C524.09 212.25 522.16 209.68 519.52 207.85C516.88 206.01 513.35 205.1 508.93 205.1C504.51 205.1 501.119 206.02 498.479 207.85C495.839 209.69 493.94 212.25 492.76 215.54C491.58 218.84 491 222.69 491 227.12C491 232.01 491.56 236.21 492.69 239.69C493.82 243.17 495.719 245.83 498.409 247.67C501.089 249.51 504.549 250.42 508.789 250.42M508.94 272.02C502.07 272.02 495.93 271.01 490.51 268.99C485.09 266.97 480.55 264 476.88 260.09C473.21 256.18 470.429 251.48 468.549 245.97C466.669 240.46 465.729 234.23 465.729 227.26C465.729 217.94 467.47 209.99 470.95 203.4C474.43 196.81 479.45 191.77 485.99 188.29C492.53 184.81 500.18 183.07 508.94 183.07C515.62 183.07 521.67 184.08 527.09 186.1C532.5 188.13 537.069 191.02 540.789 194.78C544.509 198.55 547.38 203.16 549.4 208.62C551.42 214.08 552.44 220.29 552.44 227.26C552.44 236.49 550.749 244.46 547.359 251.19C543.969 257.92 539.049 263.08 532.599 266.65C526.149 270.23 518.27 272.01 508.95 272.01" fill="#033300"/>
<path d="M600.429 272.02C593.839 272.02 587.909 271.01 582.639 268.99C577.369 266.97 572.919 264.05 569.299 260.23C565.679 256.42 562.899 251.74 560.969 246.18C559.039 240.63 558.069 234.32 558.069 227.26C558.069 217.85 559.859 209.85 563.439 203.26C567.019 196.67 572.029 191.66 578.479 188.22C584.929 184.78 592.439 183.07 600.999 183.07C608.629 183.07 615.189 184.34 620.699 186.88C626.209 189.42 630.579 193.21 633.829 198.25C637.079 203.29 639.079 209.47 639.829 216.82L615.539 221.34C614.599 215.98 613.019 211.93 610.809 209.2C608.599 206.47 605.039 205.1 600.149 205.1C596.099 205.1 592.849 206.14 590.409 208.21C587.959 210.28 586.169 212.96 585.049 216.26C583.919 219.55 583.359 223.23 583.359 227.27C583.359 232.17 583.929 236.31 585.049 239.7C586.179 243.09 587.969 245.73 590.409 247.61C592.859 249.49 596.109 250.43 600.149 250.43C603.539 250.43 606.219 249.82 608.199 248.59C610.179 247.37 611.779 245.51 612.999 243.01C614.219 240.52 615.209 237.48 615.969 233.9L639.979 237.85C639.219 245.1 637.159 251.29 633.769 256.42C630.379 261.55 625.859 265.44 620.209 268.07C614.559 270.7 607.969 272.02 600.439 272.02" fill="#033300"/>
<path d="M683.809 272.02C676.469 272.02 670.369 271.29 665.519 269.83C660.669 268.37 656.789 266.42 653.869 263.97C650.949 261.52 648.789 258.72 647.369 255.57C645.959 252.42 645.059 249.15 644.689 245.76L668.979 240.68C669.539 243.41 670.599 245.62 672.159 247.32C673.709 249.01 675.599 250.21 677.809 250.92C680.019 251.63 682.399 251.98 684.939 251.98C688.329 251.98 690.919 251.53 692.709 250.64C694.499 249.75 695.389 248.4 695.389 246.62C695.389 245.21 694.939 243.96 694.049 242.88C693.159 241.8 691.409 240.81 688.829 239.91C686.239 239.02 682.399 238.24 677.319 237.58C669.409 236.26 663.219 234.4 658.749 232C654.279 229.6 651.099 226.52 649.219 222.75C647.329 218.99 646.399 214.65 646.399 209.76C646.399 201.2 649.429 194.61 655.509 189.99C661.579 185.38 670.779 183.07 683.109 183.07C691.209 183.07 697.789 184.13 702.879 186.25C707.959 188.37 711.799 191.29 714.389 195.01C716.979 198.73 718.649 203.04 719.399 207.93L694.129 212.59C693.559 210.33 692.859 208.47 692.009 207.01C691.159 205.55 689.909 204.45 688.269 203.69C686.619 202.94 684.429 202.56 681.709 202.56C678.219 202.56 675.679 203.05 674.079 204.04C672.479 205.03 671.679 206.51 671.679 208.49C671.679 209.53 672.009 210.54 672.669 211.53C673.329 212.52 674.829 213.44 677.189 214.28C679.539 215.13 683.259 216.02 688.349 216.96C695.219 218.19 700.799 219.71 705.079 221.55C709.359 223.39 712.659 225.51 714.959 227.9C717.259 230.3 718.869 232.96 719.759 235.88C720.649 238.8 721.099 241.86 721.099 245.06C721.099 250.71 719.799 255.56 717.219 259.6C714.629 263.65 710.609 266.73 705.149 268.85C699.689 270.97 692.579 272.03 683.829 272.03" fill="#033300"/>
<path d="M165.94 177.28C126.39 169.29 86.4001 148.05 86.4001 94.7901C86.4001 45.2301 133.47 9.57011 182.69 9.57011H187.99C188.46 9.57011 188.5 10.2501 188.04 10.3201C175.5 12.0001 163.61 16.2401 153.93 23.4001C153.86 23.4501 153.86 23.5501 153.92 23.6101L156.57 25.9901C156.64 26.0501 156.63 26.1501 156.55 26.2001C155.11 27.0701 143.65 34.1001 137.57 41.5301C137.51 41.6001 137.55 41.7101 137.64 41.7401L144.98 43.9201C145.07 43.9501 145.11 44.0601 145.03 44.1301C143.82 45.3101 135.93 53.2501 130.59 64.8801C130.55 64.9801 130.63 65.0801 130.73 65.0601L142.65 62.8801C142.75 62.8601 142.83 62.9601 142.79 63.0601C142.15 64.6601 138.14 74.9001 134.95 88.8001C134.92 88.9201 135.06 89.0101 135.16 88.9401L147.78 79.7101C147.86 79.6501 147.98 79.7101 147.99 79.8101L149.28 108.46C149.28 108.59 149.45 108.63 149.52 108.52L158.76 93.6401C158.82 93.5501 158.95 93.5601 158.99 93.6601L169.89 121.36C169.94 121.48 170.12 121.47 170.14 121.34L173.72 103.17C173.74 103.06 173.88 103.03 173.95 103.11L193.82 126.23C193.9 126.32 194.05 126.27 194.05 126.14V108.54C194.05 108.43 194.17 108.37 194.26 108.44L218.29 126.34C218.38 126.41 218.5 126.34 218.5 126.24V108.55C218.5 108.44 218.62 108.38 218.71 108.45L242.74 126.35C242.83 126.42 242.95 126.35 242.95 126.25V1.2401C242.95 1.0301 242.78 0.860107 242.57 0.860107H153.32C78.6301 0.860107 2.12012 61.4101 2.12012 136.09C2.12012 157.11 6.92012 177 15.4701 194.74L23.2901 198.66C23.2901 198.66 23.3901 198.64 23.3801 198.59L20.2901 178.19C20.2901 178.19 20.3201 178.11 20.3701 178.12L44.9401 182.65H44.9601L69.5301 178.12C69.5301 178.12 69.6101 178.15 69.6101 178.19L66.5201 198.58C66.5201 198.63 66.5701 198.67 66.6101 198.65L85.0501 189.41C85.0501 189.41 85.1401 189.41 85.1401 189.46L88.4301 214.23C88.4301 214.23 88.4301 214.24 88.4301 214.25L100.33 236.22C100.33 236.22 100.33 236.31 100.28 236.31L79.9301 239.67C79.8801 239.67 79.8601 239.74 79.8901 239.78L94.3801 254.46C94.3801 254.46 94.4001 254.55 94.3601 254.56L83.0601 259.96C99.6701 267.25 118.03 271.3 137.34 271.3H242.56C242.77 271.3 242.94 271.13 242.94 270.92C242.76 225.39 210.58 186.27 165.92 177.25" fill="#298A29"/>
<path d="M36.7498 230.32L39.8698 220.72C39.8698 220.72 39.8898 220.69 39.9098 220.69H50.0098C50.0098 220.69 50.0398 220.7 50.0498 220.72L53.1698 230.32C53.1698 230.32 53.1698 230.36 53.1598 230.37L44.9898 236.31C44.9898 236.31 44.9598 236.32 44.9398 236.31L36.7698 230.37C36.7698 230.37 36.7498 230.34 36.7598 230.32M89.9398 231.15L81.9398 216.37C81.9398 216.37 81.9398 216.37 81.9398 216.36L79.7298 199.7C79.7298 199.7 79.6998 199.66 79.6698 199.67L57.9798 210.54C57.9798 210.54 57.9198 210.53 57.9198 210.5L61.5598 186.51C61.5598 186.51 61.5398 186.46 61.5098 186.46L44.9798 189.51C44.9798 189.51 44.9798 189.51 44.9698 189.51L28.4398 186.46C28.4398 186.46 28.3898 186.48 28.3898 186.51L32.0298 210.5C32.0298 210.5 31.9998 210.56 31.9698 210.54L10.2798 199.67C10.2798 199.67 10.2298 199.67 10.2198 199.7L8.00977 216.36V216.37L0.00976562 231.15C0.00976562 231.15 0.0097644 231.21 0.0397644 231.21L23.9798 235.16C23.9798 235.16 24.0298 235.21 23.9998 235.23L6.95978 252.5C6.95978 252.5 6.94977 252.55 6.96977 252.57L22.1298 259.82C22.1298 259.82 22.1298 259.82 22.1398 259.82L33.7198 272C33.7198 272 33.7698 272.02 33.7898 272L44.9498 250.45C44.9498 250.45 45.0098 250.42 45.0198 250.45L56.1798 272C56.1798 272 56.2298 272.03 56.2498 272L67.8298 259.82C67.8298 259.82 67.8298 259.82 67.8398 259.82L82.9998 252.57C82.9998 252.57 83.0298 252.52 83.0098 252.5L65.9698 235.23C65.9698 235.23 65.9598 235.17 65.9898 235.16L89.9298 231.21C89.9298 231.21 89.9698 231.17 89.9598 231.15" fill="#298A29"/>
</svg>
